
<?xml version="1.0" encoding="UTF-8"?>
<!DOCTYPE svg PUBLIC "-//W3C//DTD SVG 1.1//EN" "http://www.w3.org/Graphics/SVG/1.1/DTD/svg11.dtd">
<!-- Creator: CorelDRAW 2020 (64-Bit) -->
<svg xmlns="http://www.w3.org/2000/svg" xml:space="preserve" width="290mm" height="50mm" version="1.1" style="shape-rendering:geometricPrecision; text-rendering:geometricPrecision; image-rendering:optimizeQuality; fill-rule:evenodd; clip-rule:evenodd"
     viewBox="0 0 29000 5000"
     xmlns:xlink="http://www.w3.org/1999/xlink"
     xmlns:xodm="http://www.corel.com/coreldraw/odm/2003">
 <defs>
  <style type="text/css">
   <![CDATA[
    .fil0 {fill:#339ADF}
    .fil2 {fill:#57C6FF}
    .fil1 {fill:#C695D6}
    .fil6 {fill:#FF6949}
    .fil5 {fill:#FF72AC}
    .fil3 {fill:#FF9C46}
    .fil4 {fill:#FFD448}
   ]]>
  </style>
 </defs>
    <g id="Слой_x0020_1">
  <metadata id="CorelCorpID_0Corel-Layer"/>
        <g id="_2962115649648">
   <g>
    <g>
     <path class="fil0" d="M12920.52 1391.99c68.37,31.6 110.55,94.74 110.55,168.49l0 2048.78 -363.34 0c0,0 0,-1095.52 0,-1606.41 -431.61,431.91 -1558.13,1553.69 -1558.13,1553.69 -52.63,52.72 -131.6,68.33 -194.74,42.06 -68.41,-31.43 -115.74,-94.79 -115.74,-168.45l0 -2048.7 363.17 0c0,0 0,1095.45 0,1606.4 431.65,-426.69 1558,-1553.74 1558,-1553.74 52.82,-52.66 131.64,-68.5 200.23,-42.12zm-3679.51 -10.54l0 0c-552.76,0 -1005.54,447.59 -1005.54,1005.9l0 215.95c0,558.24 452.78,1005.96 1005.54,1005.96l1184.28 0 -73.68 -363.51 -1110.6 0c-352.82,0 -642.31,-284.37 -642.31,-642.45l0 -215.95c0,-352.84 289.49,-642.54 642.31,-642.54l1110.6 0 73.68 -363.36 -1184.28 0zm6279.96 0l0 0 -2226.75 0 0 363.36 931.77 0 0 1864.45 363.26 0 0 -1864.45 931.72 0 0 -363.36zm3842.67 0l0 0 -1079.14 2227.81 410.56 0 847.46 -1753.81 847.55 1753.81 410.56 0 -1073.92 -2227.81 -363.07 0zm-1384.53 10.54l0 0c68.41,31.6 110.55,94.74 110.55,168.49l0 2048.78 -363.2 0c0,0 0,-1095.52 0,-1606.41 -431.65,431.91 -1552.81,1553.69 -1552.81,1553.69 -52.77,52.72 -131.59,68.33 -200.14,42.06 -68.46,-31.43 -110.56,-94.79 -110.56,-168.45l0 -2048.7 363.34 0c0,0 0,1095.45 0,1606.4 431.62,-426.69 1552.85,-1553.74 1552.85,-1553.74 52.56,-52.66 131.64,-68.5 199.97,-42.12zm5132.51 0l0 0c68.42,31.6 110.47,94.74 110.47,168.49l0 2048.78 -363.21 0c0,0 0,-1095.52 0,-1606.41 -431.66,431.91 -1552.9,1553.69 -1552.9,1553.69 -52.6,52.72 -131.64,68.33 -200.06,42.06 -68.37,-31.43 -110.55,-94.79 -110.55,-168.45l0 -2048.7 363.28 0c0,0 0,1095.45 0,1606.4 431.67,-426.69 1552.78,-1553.74 1552.78,-1553.74 52.68,-52.66 131.6,-68.5 200.19,-42.12zm3479.37 1285.01l0 0c268.38,0 605.36,0 679.04,0 47.37,52.68 784.28,932.26 784.28,932.26l442.3 0 -894.79 -1111.3 894.79 -1116.51 -442.3 0c0,0 -731.51,879.51 -784.28,932.19l-679.04 0 0 -932.19 -363.24 0 0 2227.81 363.24 0 0 -932.26zm-1110.64 -1295.55l0 0 0 932.19 -1505.64 0 0 -932.19 -363.06 0 0 2227.81 363.06 0 0 -932.26c505.48,0 1052.92,0 1505.64,0l0 932.26 363.28 0 0 -2227.81 -363.28 0z"/>
    </g>
   </g>
            <g>
    <path class="fil1" d="M5893.8 3083.75l-658.55 -67.53c-60.5,-7.2 -103.19,-67.67 -96.07,-138.89 7.11,-67.72 60.47,-121.11 121.02,-114.04l665.68 67.68c-25.04,81.91 -35.63,167.31 -32.08,252.78z"/>
   </g>
            <g>
    <path class="fil1" d="M7242.79 2706.3c185.08,331.2 71.22,751.39 -259.8,936.62 -327.48,188.66 -747.5,71.21 -936.16,-256.45 -185.1,-331.17 -71.21,-751.37 259.79,-940.16 327.48,-185.13 747.51,-71.09 936.17,259.99z"/>
   </g>
            <g>
    <path class="fil2" d="M4071.39 1684.28c28.41,-7.11 60.49,3.55 67.61,32.03l32.02 96.15c-39.14,7.14 -74.75,17.88 -110.37,32.08l-28.44 -96.11c-7.13,-25.04 7.08,-53.49 39.18,-64.15z"/>
   </g>
            <g>
    <path class="fil3" d="M6879.78 1573.92c81.8,96.15 67.59,242.14 -28.52,324.09 -96.07,81.93 -242.02,71.18 -323.9,-28.49l-3.58 -3.58 21.36 0 0 -3.53c35.6,-3.63 64.1,-21.49 85.41,-46.35 17.81,-24.91 28.55,-56.93 24.96,-92.67l0 -3.51c-3.55,-35.6 -17.83,-64.05 -39.15,-85.41 -24.98,-24.94 -57.01,-39.19 -92.58,-35.65l-17.74 0c14.19,-17.82 28.45,-39.15 46.26,-53.41 99.66,-81.9 245.52,-71.25 327.48,28.51z"/>
   </g>
            <g>
    <path class="fil4" d="M529.77 3090.93c-138.8,-516.3 170.85,-1050.52 686.92,-1189.42 516.15,-135.3 1046.47,170.95 1185.34,687.22 138.78,516.4 -167.33,1046.99 -683.42,1185.94 -516.15,138.85 -1050.06,-167.39 -1188.84,-683.74z"/>
   </g>
            <g>
    <path class="fil2" d="M3811.5 1395.81c92.6,-121.02 270.53,-145.99 391.6,-53.42 124.56,96.16 149.47,270.71 53.33,395.32 -10.68,10.72 -21.31,24.92 -32.05,35.61l-24.89 -78.38c-10.65,-28.47 -32.02,-53.39 -60.49,-64.05 -28.5,-10.7 -56.97,-14.24 -85.43,-3.54l-3.55 0c-28.47,7.12 -49.84,28.48 -67.67,49.82 -14.24,28.51 -21.29,60.54 -10.66,89.04l24.91 78.33c-46.26,-7.12 -92.5,-24.94 -131.69,-53.39 -121.01,-96.21 -145.96,-270.67 -53.41,-395.34z"/>
   </g>
            <g>
    <path class="fil0" d="M4395.28 1837.42c501.84,0 911.2,381.03 957.48,872.41l-85.43 -10.63c-49.85,-3.62 -96.09,14.28 -131.69,46.28 -32.08,32.01 -53.44,74.75 -60.47,124.69l0 3.53c-3.63,49.86 10.61,96.12 35.51,131.77 24.96,39.18 67.68,67.68 117.47,74.77l81.91 7.16c-124.57,388.19 -487.66,665.93 -914.78,665.93 -526.79,0 -957.5,-427.33 -957.5,-957.92 0,-110.41 17.82,-220.78 53.37,-320.64l138.84 82.03c42.68,21.37 88.96,28.5 135.27,10.63 39.13,-14.28 74.74,-42.73 96.1,-78.3 21.36,-39.18 28.44,-85.45 21.36,-124.65 -10.74,-42.83 -35.62,-81.95 -74.74,-103.3l-145.92 -81.92c177.94,-210.07 441.32,-341.84 733.22,-341.84z"/>
   </g>
            <g>
    <path class="fil3" d="M6594.96 1727.01c3.54,39.2 -21.34,71.19 -56.94,74.81l-231.4 17.78c0,-46.28 -7.12,-92.59 -17.74,-138.9l238.48 -21.37c31.99,0 64.02,28.5 67.6,67.68z"/>
   </g>
            <g>
    <path class="fil4" d="M2117.23 2040.41l177.98 -156.69c67.67,-60.49 181.55,-42.8 249.16,35.61 67.65,81.92 67.65,192.33 0,252.8l-181.49 160.25c-64.1,-113.93 -149.54,-213.59 -245.65,-291.97z"/>
   </g>
            <g>
    <path class="fil5" d="M2142.15 1855.25c-32.03,-324.08 202.9,-616.08 530.37,-648.17 323.9,-32.05 615.78,203 647.81,527.05 32.01,324.06 -202.92,616.03 -526.82,648.17 -117.44,14.21 -231.33,-10.74 -327.43,-57l117.46 -106.85c49.79,-42.74 74.74,-103.24 74.74,-163.8 0,-60.52 -21.37,-124.65 -67.59,-174.5l0 -3.53c-46.32,-49.9 -103.3,-81.89 -160.21,-89.02 -64.07,-10.73 -124.57,3.55 -174.41,46.2l-99.68 89.07c-7.11,-21.36 -10.65,-42.72 -14.24,-67.62z"/>
   </g>
            <g>
    <path class="fil6" d="M5520.05 1965.61c35.61,49.94 28.46,113.99 -14.28,146.05l-238.44 174.45c-35.6,-64.12 -81.84,-121.06 -131.69,-174.45l245.59 -178.08c39.15,-28.44 103.22,-14.25 138.82,32.03z"/>
   </g>
            <g>
    <path class="fil5" d="M3327.42 2058.19l452.09 256.46c42.7,24.81 56.98,89.03 28.47,142.38 -32.06,53.4 -92.57,74.76 -138.81,49.94l-462.71 -263.54c49.78,-53.43 92.5,-117.53 120.96,-185.24z"/>
   </g>
            <g>
    <path class="fil6" d="M5883.1 1321.02c281.18,92.66 434.23,398.86 338.17,680.23 -92.61,281.28 -398.73,430.94 -679.89,338.21 -53.35,-17.81 -99.63,-42.67 -142.37,-74.66l145.95 -103.3c35.57,-28.44 56.94,-67.66 60.46,-110.39 3.56,-39.2 -10.66,-81.92 -35.56,-121.11 -28.48,-35.6 -64.09,-60.48 -103.23,-67.59 -42.73,-10.76 -85.4,-3.63 -121.03,21.31l-3.56 0 -142.39 103.3c-31.97,-103.3 -31.97,-217.28 3.63,-327.69 96.09,-281.28 398.62,-434.42 679.82,-338.31z"/>
   </g>
  </g>
 </g>
</svg>
